<?xml version="1.0" standalone="no"?>
<!DOCTYPE svg PUBLIC "-//W3C//DTD SVG 20010904//EN"
 "http://www.w3.org/TR/2001/REC-SVG-20010904/DTD/svg10.dtd">
<svg version="1.0" xmlns="http://www.w3.org/2000/svg"
 width="1000.000000pt" height="1000.000000pt" viewBox="0 0 1000.000000 1000.000000"
 preserveAspectRatio="xMidYMid meet">
<metadata>
Created by potrace 1.14, written by Peter Selinger 2001-2017
</metadata>
<g transform="translate(0.000000,1000.000000) scale(0.100000,-0.100000)"
fill="#000000" stroke="none">
<path d="M5280 9908 c-36 -13 -8 -42 86 -89 95 -48 107 -66 79 -117 -19 -36
-79 -99 -140 -147 -27 -22 -52 -42 -55 -45 -3 -3 -19 -16 -37 -28 -18 -13 -42
-31 -55 -42 -42 -36 -105 -85 -128 -100 -12 -8 -28 -20 -34 -25 -28 -25 -228
-165 -236 -165 -4 0 -10 -4 -12 -9 -4 -11 -238 -163 -383 -248 -11 -6 -36 -20
-55 -29 -19 -10 -37 -21 -40 -25 -7 -8 -68 -40 -76 -38 -4 0 -10 -4 -13 -9 -3
-5 -53 -33 -111 -61 -57 -29 -109 -56 -115 -60 -5 -4 -26 -14 -45 -21 -19 -7
-67 -29 -106 -47 -40 -19 -78 -35 -85 -37 -8 -1 -25 -8 -39 -16 -14 -7 -25
-12 -25 -11 0 1 -13 -3 -30 -9 -16 -7 -34 -13 -40 -14 -5 -1 -15 -4 -20 -8
-15 -9 -184 -67 -215 -74 -14 -3 -29 -6 -35 -7 -5 -2 -16 -6 -23 -11 -7 -4
-16 -5 -19 -2 -3 3 -12 1 -20 -6 -7 -6 -16 -8 -20 -5 -3 4 -12 2 -18 -3 -7 -6
-25 -12 -41 -14 -16 -3 -39 -7 -51 -10 -13 -3 -33 -8 -45 -11 -13 -2 -36 -8
-53 -11 -16 -4 -40 -8 -52 -10 -11 -1 -30 -5 -40 -8 -22 -7 -86 -15 -183 -22
-110 -8 -116 -9 -141 -26 -20 -13 -22 -19 -13 -35 6 -10 24 -25 40 -33 16 -8
31 -17 34 -20 5 -5 15 -8 50 -15 8 -2 15 -4 15 -5 0 -2 16 -5 60 -14 17 -3 41
-8 55 -11 14 -3 39 -8 55 -10 17 -2 41 -6 55 -10 14 -3 41 -8 60 -11 19 -3 49
-7 65 -10 62 -10 162 -24 210 -30 89 -9 330 -11 356 -2 15 5 42 11 61 13 18 2
33 4 33 5 0 2 19 6 65 14 19 4 43 9 52 12 9 3 27 7 40 10 77 17 111 24 123 28
48 14 64 17 90 21 17 2 30 5 30 6 0 1 9 3 20 5 11 1 49 10 85 19 36 9 75 19
87 21 12 2 34 9 48 14 14 5 25 8 25 5 0 -2 18 2 40 10 22 8 42 14 45 14 3 1
15 3 28 6 13 4 32 8 43 10 10 2 19 4 19 5 0 2 34 10 60 15 11 2 21 4 23 5 1 2
7 4 12 5 6 1 11 3 13 5 1 1 9 3 17 5 8 2 30 8 48 14 17 5 32 7 32 4 0 -3 7 0
15 7 9 7 18 10 21 8 3 -3 27 3 55 13 27 10 49 17 49 14 0 -3 13 1 28 9 16 8
42 17 58 20 16 2 30 5 32 6 1 2 5 3 10 5 4 1 14 5 22 8 8 4 24 8 35 10 11 2
29 7 40 11 11 5 37 14 58 22 20 8 37 11 37 8 0 -4 6 -2 13 4 7 6 27 14 45 17
18 3 41 10 50 15 9 5 38 15 64 24 l47 14 28 -36 c15 -20 35 -46 45 -57 9 -11
35 -45 57 -75 22 -30 44 -59 48 -65 15 -18 84 -126 105 -163 51 -90 79 -142
78 -147 0 -3 7 -19 15 -35 9 -17 13 -30 9 -30 -4 0 -2 -6 4 -13 10 -12 16 -33
28 -97 11 -58 10 -138 -1 -176 -12 -40 -70 -135 -87 -142 -4 -2 -8 -8 -8 -12
0 -10 -89 -161 -100 -170 -3 -3 -17 -23 -30 -45 -13 -22 -27 -42 -30 -45 -4
-3 -13 -16 -20 -29 -7 -14 -17 -30 -22 -35 -5 -6 -34 -45 -66 -87 -107 -141
-117 -154 -122 -159 -3 -3 -28 -32 -55 -65 -28 -33 -66 -78 -85 -99 -64 -74
-325 -338 -351 -356 -18 -13 -51 -20 -115 -25 -175 -11 -260 -19 -359 -31 -27
-4 -61 -8 -75 -9 -22 -2 -91 -11 -155 -19 -11 -2 -29 -6 -40 -9 -18 -5 -54
-12 -130 -22 -16 -3 -41 -7 -55 -11 -14 -3 -34 -7 -45 -9 -27 -5 -54 -12 -92
-24 -18 -5 -33 -8 -33 -6 0 3 -11 0 -26 -5 -45 -17 -81 -21 -82 -7 -17 208
-22 561 -9 687 3 36 18 97 32 135 30 81 39 126 36 175 -6 85 -5 277 1 301 18
76 84 149 149 166 47 12 155 10 200 -4 74 -21 143 -95 167 -178 27 -93 26 -90
37 -225 6 -79 14 -126 30 -200 4 -14 7 -29 8 -35 2 -5 6 -16 10 -22 5 -7 6
-13 3 -13 -3 0 3 -20 14 -45 11 -25 20 -49 21 -53 5 -36 72 -144 118 -191 113
-117 238 -152 351 -98 163 77 240 234 234 472 -3 106 -7 153 -19 205 -25 116
-25 132 0 230 3 14 8 32 10 40 2 8 4 15 5 15 1 0 3 7 5 15 2 8 11 33 21 55 10
22 18 45 20 50 1 6 22 52 47 103 25 50 43 92 40 92 -3 0 0 6 6 13 10 12 16 53
12 85 -1 10 -6 10 -23 1 -30 -16 -51 -37 -133 -139 -71 -87 -128 -143 -148
-146 -7 -1 -16 -3 -22 -4 -32 -7 -44 4 -65 63 -25 66 -46 109 -70 140 -27 36
-84 87 -102 93 -10 3 -18 10 -18 15 0 6 -4 7 -10 4 -5 -3 -10 -2 -10 2 0 5
-28 17 -62 28 -85 26 -266 27 -403 1 -49 -9 -109 -23 -112 -26 -2 -2 -6 -3
-10 -4 -23 -6 -104 -45 -178 -86 -105 -58 -270 -202 -382 -335 -23 -28 -50
-60 -60 -72 -10 -12 -43 -57 -73 -99 -66 -94 -148 -180 -187 -195 -39 -16
-105 -20 -120 -7 -7 6 -13 7 -13 3 0 -4 -7 -2 -15 5 -16 13 -126 69 -137 70
-4 0 -19 5 -35 12 -15 6 -30 12 -33 13 -3 1 -38 11 -79 24 -77 24 -103 30
-136 35 -11 2 -20 4 -20 5 0 2 -7 4 -15 6 -100 23 -154 16 -174 -22 -19 -37
-6 -63 70 -143 35 -36 77 -83 94 -105 90 -112 183 -287 209 -390 21 -82 22
-89 27 -120 2 -16 11 -47 19 -67 8 -21 12 -38 9 -38 -4 0 -2 -6 4 -12 6 -7 10
-15 11 -18 0 -6 1 -11 31 -100 12 -36 24 -73 26 -82 2 -10 6 -26 9 -35 8 -30
26 -107 30 -126 2 -9 7 -22 10 -27 7 -11 16 -47 17 -67 1 -7 5 -13 10 -13 18
0 6 -19 -19 -29 -16 -6 -59 -29 -98 -51 -38 -22 -77 -43 -85 -47 -8 -3 -33
-18 -55 -31 -22 -14 -65 -39 -95 -55 -30 -17 -79 -45 -108 -64 -29 -18 -55
-33 -58 -33 -2 0 -10 -5 -17 -10 -28 -24 -247 -158 -247 -152 0 4 -4 1 -8 -6
-10 -14 -201 -142 -214 -142 -4 0 -9 5 -9 10 -2 18 -5 24 -33 85 -16 33 -29
66 -29 73 0 6 -3 12 -7 12 -4 0 -12 18 -19 40 -6 22 -15 40 -20 40 -4 0 -18
24 -31 53 -13 28 -26 54 -29 57 -8 7 -71 110 -71 117 0 3 -10 19 -22 36 -13
18 -23 36 -23 40 0 4 -5 11 -11 15 -5 4 -20 23 -31 42 -23 37 -67 80 -82 80
-5 0 -14 7 -21 15 -7 8 -16 12 -21 9 -5 -3 -9 -2 -9 3 0 4 -18 9 -39 11 -31 2
-43 -2 -58 -21 -15 -20 -23 -72 -13 -84 2 -2 3 -6 4 -10 3 -12 28 -56 40 -70
29 -32 37 -45 56 -81 11 -22 24 -50 27 -63 8 -30 9 -244 0 -284 -14 -73 -19
-89 -28 -107 -5 -10 -7 -18 -4 -18 3 0 -1 -16 -9 -35 -8 -19 -13 -35 -10 -35
3 0 -1 -10 -8 -22 -6 -13 -13 -32 -15 -43 -2 -10 -10 -30 -18 -42 -9 -13 -13
-23 -10 -23 3 0 -1 -13 -10 -30 -8 -16 -15 -32 -15 -35 1 -6 -139 -277 -168
-325 -12 -19 -29 -51 -39 -70 -9 -19 -20 -37 -23 -40 -4 -3 -10 -12 -14 -20
-4 -8 -12 -24 -19 -35 -19 -30 -60 -109 -64 -120 -27 -99 -35 -217 -19 -305 3
-19 9 -51 12 -70 3 -19 9 -44 13 -55 8 -20 50 -142 55 -160 1 -5 10 -27 19
-49 9 -21 17 -45 17 -52 0 -8 4 -14 9 -14 7 0 13 -14 21 -48 1 -4 8 -14 16
-23 8 -9 11 -19 7 -22 -3 -4 -1 -7 5 -7 7 0 11 -3 10 -8 -1 -4 4 -18 12 -32 8
-14 15 -33 17 -42 3 -22 39 -97 56 -119 17 -22 51 -39 78 -39 28 0 109 83 131
136 17 41 30 74 33 87 2 4 4 9 5 12 1 3 3 8 4 13 1 4 5 13 9 20 5 6 6 12 3 12
-5 0 11 47 39 115 5 11 9 22 9 25 1 3 5 11 9 18 5 6 6 12 2 12 -3 0 0 10 7 23
6 12 13 30 15 40 2 10 8 28 15 40 7 12 13 27 14 33 1 6 9 27 17 45 25 55 56
129 57 134 1 11 153 300 160 305 4 3 10 15 14 28 4 12 12 22 17 22 5 0 9 6 9
13 0 7 9 23 20 35 11 12 20 24 20 27 0 3 4 11 10 18 5 7 36 46 67 87 32 41 62
80 68 87 5 6 21 26 34 45 73 98 285 290 391 352 51 30 207 107 224 111 6 1 27
9 47 18 20 9 47 17 60 19 13 2 29 7 35 10 10 7 35 13 104 24 19 3 39 8 44 11
5 3 45 7 90 9 87 3 179 10 236 18 19 3 51 8 70 10 95 14 128 20 151 30 9 4 20
6 25 5 5 -1 11 0 14 1 5 1 13 4 50 13 8 2 28 9 44 16 16 6 38 13 50 16 11 2
22 4 24 6 1 1 5 2 10 3 4 1 23 9 42 18 56 24 114 42 125 39 6 -2 15 -4 20 -5
52 -12 95 -29 105 -41 7 -8 17 -15 22 -15 23 0 76 -76 88 -126 12 -49 8 -182
-5 -205 -4 -5 -9 -22 -11 -36 -3 -15 -10 -30 -15 -34 -6 -3 -10 -9 -10 -13 1
-16 -12 -66 -18 -66 -4 0 -13 -16 -20 -36 -34 -93 -100 -180 -143 -188 -7 -2
-40 -15 -73 -30 -33 -15 -68 -29 -79 -31 -10 -3 -23 -8 -30 -13 -6 -4 -42 -21
-81 -36 -38 -16 -83 -34 -100 -41 -50 -20 -100 -40 -105 -41 -3 0 -14 -4 -25
-9 -44 -18 -121 -47 -130 -50 -5 -1 -26 -9 -45 -18 -19 -8 -38 -13 -42 -11 -5
3 -8 0 -8 -7 0 -7 -3 -9 -7 -6 -3 4 -11 3 -17 -2 -7 -6 -23 -12 -36 -15 -14
-2 -62 -19 -108 -36 -45 -17 -90 -33 -100 -35 -9 -2 -18 -4 -19 -5 -2 -2 -6
-3 -10 -5 -8 -2 -23 -7 -88 -32 -22 -9 -47 -17 -55 -18 -8 -1 -23 -5 -32 -9
-9 -4 -22 -9 -30 -10 -7 -2 -21 -6 -30 -10 -9 -4 -22 -8 -30 -10 -7 -1 -18 -5
-24 -8 -6 -4 -22 -9 -36 -12 -15 -2 -36 -9 -47 -16 -12 -6 -21 -8 -21 -6 0 5
-66 -29 -113 -58 -25 -16 -44 -81 -25 -92 4 -3 8 -14 8 -24 0 -10 6 -25 13
-32 13 -14 52 -72 50 -75 -3 -4 88 -104 152 -166 67 -66 191 -157 214 -157 6
0 11 -4 11 -8 0 -5 6 -9 13 -9 6 -1 39 -11 72 -23 48 -18 81 -23 160 -22 93 0
147 6 167 18 4 3 18 7 30 9 13 3 34 10 48 16 68 32 127 63 143 77 23 20 22 11
-5 -35 -28 -46 -50 -87 -74 -133 -10 -19 -23 -38 -28 -42 -6 -4 -7 -8 -2 -8 5
0 4 -6 -2 -12 -14 -18 -133 -242 -137 -258 -4 -15 -31 -66 -38 -71 -5 -3 -8
-8 -7 -10 6 -14 -27 -59 -44 -60 -12 -1 -39 -3 -61 -4 -22 -2 -56 -6 -75 -10
-19 -3 -46 -8 -60 -10 -28 -5 -46 -8 -110 -25 -25 -6 -54 -13 -65 -15 -31 -7
-49 -11 -65 -18 -11 -5 -98 -31 -140 -42 -38 -11 -147 -82 -154 -101 -3 -7 2
-20 10 -29 17 -17 15 -16 69 -20 87 -6 149 -16 162 -26 7 -7 13 -9 13 -5 0 7
121 -52 130 -63 3 -3 27 -23 53 -45 27 -21 45 -42 40 -45 -5 -3 -25 -28 -43
-56 -19 -27 -39 -55 -45 -62 -14 -17 -24 -30 -75 -98 -24 -33 -53 -69 -63 -80
-10 -11 -37 -47 -60 -80 -22 -33 -46 -64 -54 -68 -7 -4 -13 -12 -13 -18 0 -19
-421 -566 -492 -639 -40 -41 -82 -86 -93 -100 -44 -56 -75 -99 -75 -105 0 -4
-9 -19 -19 -33 -21 -30 -84 -151 -87 -167 -1 -5 -11 -30 -22 -55 -11 -25 -24
-58 -30 -75 -6 -16 -13 -39 -18 -50 -6 -18 -10 -32 -17 -60 -1 -5 -6 -16 -10
-23 -5 -6 -6 -12 -4 -12 3 0 -2 -26 -12 -57 -9 -32 -16 -71 -15 -88 2 -37 20
-85 33 -85 5 0 17 -7 26 -16 15 -15 39 -19 75 -12 8 2 44 20 80 40 36 19 138
72 228 117 90 44 170 87 178 96 9 8 20 16 25 16 5 1 15 2 22 3 12 2 55 -15
162 -65 28 -13 52 -23 55 -24 3 0 39 -14 80 -30 41 -16 78 -30 83 -31 4 -1 9
-3 12 -4 3 -1 8 -3 13 -4 4 -1 34 -10 67 -21 62 -19 73 -22 103 -29 9 -3 17
-5 17 -6 0 -1 11 -4 25 -7 39 -7 55 -11 55 -13 0 -1 9 -3 20 -5 11 -2 31 -6
45 -9 14 -4 41 -8 60 -11 19 -3 46 -7 60 -10 25 -5 53 -9 160 -21 111 -13 442
-6 525 10 11 2 42 7 69 10 27 4 52 9 55 11 3 1 22 6 41 9 19 3 46 8 60 11 14
3 35 8 47 11 12 2 34 9 48 14 14 5 25 7 25 4 0 -4 6 -2 13 4 7 6 26 14 42 17
17 3 35 7 40 8 12 3 165 63 215 84 54 23 244 117 250 124 3 3 25 15 50 28 25
13 47 27 50 31 3 4 23 17 45 29 49 26 78 44 85 52 3 3 37 28 75 54 39 27 94
68 123 92 60 48 55 48 139 -14 28 -21 61 -45 73 -53 12 -8 28 -21 36 -28 7 -6
17 -12 21 -12 5 0 18 -8 29 -18 18 -17 92 -71 140 -102 46 -30 209 -144 214
-149 3 -3 12 -10 22 -16 9 -5 51 -34 95 -64 43 -30 92 -64 108 -75 17 -12 32
-24 33 -28 2 -5 10 -8 18 -8 8 0 14 -4 14 -8 0 -4 15 -16 33 -27 32 -19 171
-116 194 -135 7 -5 16 -10 22 -10 5 0 11 -4 13 -8 2 -4 53 -41 113 -81 61 -41
119 -82 131 -92 11 -11 24 -19 30 -19 5 0 25 -14 44 -30 19 -16 41 -34 47 -40
29 -24 195 -99 214 -96 3 1 13 -5 22 -13 10 -7 17 -11 17 -8 0 3 15 1 33 -4
40 -13 63 -18 106 -25 18 -3 43 -8 55 -10 11 -3 35 -7 51 -9 17 -1 59 -6 95
-10 94 -11 155 -13 345 -13 233 0 298 3 630 33 84 8 162 18 205 28 23 5 81 37
100 56 40 37 56 91 48 156 -6 44 -64 142 -106 180 -65 58 -76 67 -112 95 -18
14 -39 31 -46 37 -7 7 -16 13 -19 13 -4 0 -24 14 -45 30 -21 17 -43 30 -49 30
-6 0 -11 3 -11 8 0 4 -10 12 -23 18 -12 6 -75 38 -139 72 -64 33 -119 58 -122
54 -3 -3 -6 1 -6 8 0 7 -3 11 -6 7 -4 -3 -28 5 -55 19 -27 13 -49 22 -49 19 0
-3 -10 0 -22 7 -13 7 -26 13 -30 14 -5 1 -10 3 -13 4 -3 1 -8 3 -12 4 -10 3
-146 45 -203 63 -25 8 -54 16 -65 18 -24 3 -104 24 -125 32 -8 4 -18 7 -22 8
-5 2 -9 3 -10 4 -2 2 -13 4 -24 6 -12 3 -34 10 -50 16 -16 7 -36 13 -45 15 -9
2 -29 9 -45 15 -35 15 -32 14 -69 24 -16 4 -39 13 -50 19 -11 5 -23 11 -27 12
-5 1 -9 2 -10 3 -2 2 -14 5 -28 7 -13 2 -35 11 -47 19 -13 9 -23 13 -23 10 0
-3 -10 0 -22 7 -13 7 -25 13 -28 14 -7 1 -40 14 -70 26 -14 5 -26 9 -28 9 -1
-1 -17 6 -35 16 -17 9 -35 16 -39 15 -5 -1 -8 3 -8 9 0 5 -4 8 -8 5 -5 -3 -53
17 -108 44 -54 28 -104 50 -111 50 -6 0 -18 7 -27 15 -8 9 -17 15 -18 14 -8
-5 -48 14 -48 22 0 6 -4 7 -10 4 -5 -3 -10 -1 -10 6 0 7 -3 9 -7 6 -3 -4 -11
-3 -17 2 -6 5 -51 30 -101 56 -49 26 -98 54 -107 63 -10 8 -18 12 -18 8 0 -4
-13 2 -29 13 -16 12 -32 21 -35 21 -3 0 -29 16 -56 35 -27 19 -53 35 -56 35
-10 0 -149 93 -152 102 -2 4 -10 8 -18 8 -9 0 -12 5 -8 12 4 6 3 8 -3 5 -10
-6 -38 12 -110 69 l-32 25 20 47 c10 26 24 55 30 66 6 10 12 28 15 40 2 11 16
50 30 86 14 36 32 81 39 100 7 19 17 44 21 55 4 11 8 22 9 25 4 19 29 87 34
95 3 6 6 16 7 23 2 8 6 21 10 30 9 21 9 21 19 57 4 17 12 36 18 43 5 6 7 12 4
12 -3 0 6 28 19 62 14 35 27 72 30 83 4 22 61 201 71 225 8 19 8 19 18 55 4
17 12 36 18 43 5 6 6 12 2 12 -4 0 0 11 9 25 9 14 14 25 11 25 -3 0 0 10 7 23
7 12 13 24 13 27 0 3 6 15 13 27 7 13 10 23 8 23 -3 0 15 34 39 76 25 42 45
78 45 81 0 3 6 19 14 36 34 77 49 221 33 317 -3 19 -9 52 -12 74 -3 21 -8 42
-11 47 -3 5 -7 17 -9 26 -2 10 -10 37 -19 61 -8 23 -15 44 -15 47 -1 3 -8 21
-16 41 -8 20 -15 39 -15 41 0 3 -24 52 -52 110 -88 177 -198 270 -368 310 -27
6 -144 6 -187 0 -23 -4 -65 -15 -92 -26 -28 -10 -51 -17 -51 -14 0 10 -47 -30
-129 -109 -123 -120 -240 -222 -366 -322 -60 -48 -117 -93 -125 -100 -46 -36
-209 -146 -218 -146 -6 0 -12 -4 -14 -8 -4 -10 -85 -56 -223 -125 -145 -73
-175 -87 -175 -80 0 8 69 123 97 161 13 17 22 32 19 32 -3 0 8 23 24 50 17 28
30 55 30 60 0 6 4 10 10 10 5 0 10 3 9 7 -2 16 14 53 23 53 5 0 6 5 3 10 -3 6
-1 10 5 10 6 0 8 5 5 10 -3 6 -1 10 6 10 7 0 10 3 6 6 -3 4 1 21 10 38 10 17
16 34 15 38 -1 5 3 8 9 8 5 0 7 5 4 10 -3 5 -2 10 3 10 5 0 9 6 9 13 0 6 27
57 60 112 33 55 74 128 92 162 17 35 35 62 39 61 4 -1 23 5 42 14 29 12 101
39 120 43 3 1 13 5 22 9 9 4 25 9 35 11 10 2 19 4 21 5 1 2 7 4 12 5 6 1 12 4
15 5 3 1 8 3 13 4 4 1 12 4 17 7 8 5 63 20 85 24 3 0 10 3 15 6 8 5 54 19 75
23 3 1 11 5 18 9 6 5 12 6 12 3 0 -3 16 2 35 10 19 8 35 12 35 9 0 -3 8 -1 18
4 9 5 31 12 47 15 17 3 55 13 85 22 30 9 64 17 75 19 11 2 20 4 20 5 0 1 7 3
15 5 8 2 53 14 100 26 47 12 92 22 100 23 9 1 21 5 28 10 6 4 16 5 21 1 5 -3
12 -1 16 4 3 5 13 10 23 9 9 0 27 3 40 6 32 9 63 16 92 22 14 3 30 7 35 8 27
7 92 20 110 22 11 1 20 3 20 4 0 2 9 4 20 6 41 6 52 10 108 38 99 48 109 111
35 211 -4 6 -31 38 -59 73 -44 54 -48 62 -27 58 12 -3 23 -5 23 -6 0 -1 16 -3
35 -5 19 -3 49 -7 65 -10 17 -2 50 -7 75 -10 25 -3 72 -8 105 -12 78 -9 595
-8 705 1 202 17 277 24 400 40 43 6 55 8 125 22 17 4 37 7 45 8 9 1 20 4 25 7
18 10 67 12 220 13 134 0 182 -4 250 -18 50 -11 92 -18 115 -19 29 -1 139 17
148 23 1 2 5 3 10 4 4 0 28 14 54 29 52 30 105 99 121 156 12 47 17 198 7 247
-10 48 -32 107 -43 115 -5 3 -8 9 -8 13 1 8 -42 97 -68 139 -11 19 -18 37 -14
40 3 4 2 7 -3 7 -5 0 -18 17 -29 38 -11 20 -26 43 -32 50 -7 7 -13 17 -13 22
0 5 -6 15 -13 22 -7 7 -32 40 -55 73 -52 75 -224 243 -280 275 -23 13 -42 27
-42 32 0 4 -4 8 -10 8 -5 0 -32 14 -60 30 -28 17 -55 30 -59 30 -5 0 -26 8
-47 17 -22 9 -41 17 -44 18 -3 0 -11 4 -17 8 -7 5 -13 6 -13 3 0 -2 -15 0 -32
5 -66 20 -113 24 -183 14 -73 -9 -112 -15 -135 -20 -62 -13 -78 -16 -120 -20
-25 -3 -76 -8 -115 -11 -160 -12 -310 -26 -440 -38 -22 -3 -74 -7 -115 -11
-76 -7 -104 -10 -195 -20 -27 -3 -68 -7 -90 -10 -22 -2 -65 -7 -95 -10 -30 -4
-71 -8 -90 -10 -19 -2 -57 -6 -85 -10 -27 -4 -66 -8 -85 -10 -72 -8 -147 -17
-227 -29 -23 -4 -57 -9 -74 -11 l-32 -4 29 27 c16 15 49 43 74 62 25 19 50 39
56 45 6 5 47 42 90 80 81 73 273 263 334 331 32 35 142 169 180 218 8 10 22
27 32 37 9 9 19 28 23 41 4 12 11 28 16 34 25 32 28 184 4 249 -34 93 -52 135
-72 165 -12 19 -24 44 -26 55 -2 11 -9 31 -15 45 -20 49 -30 75 -28 81 0 3
-11 22 -26 42 -16 19 -28 39 -28 43 0 39 -215 258 -335 341 -49 35 -94 66
-100 71 -5 4 -25 14 -43 21 -19 8 -39 19 -45 25 -7 6 -51 31 -100 55 -86 43
-106 61 -67 61 11 0 22 -1 23 -2 2 -2 11 3 20 10 9 8 21 11 26 8 5 -4 13 -1
16 5 4 5 13 8 21 5 7 -3 16 -1 20 5 3 6 12 8 20 5 7 -3 16 -1 20 5 3 6 11 8
17 6 7 -2 23 0 37 5 14 5 36 11 50 13 14 2 35 6 46 9 81 17 215 32 369 41 89
4 101 6 160 20 85 21 163 84 171 137 13 82 9 114 -22 191 -18 42 -30 77 -28
77 7 0 -70 111 -101 145 -56 63 -133 141 -167 172 -52 46 -198 153 -209 153
-6 0 -7 5 -3 12 4 6 3 8 -3 5 -6 -4 -30 6 -54 21 -49 31 -177 94 -182 90 -2
-2 -15 5 -30 15 -15 9 -27 15 -27 12 0 -3 -13 1 -30 10 -16 9 -30 13 -30 11 0
-3 -17 2 -37 10 -20 9 -45 18 -55 20 -10 2 -28 6 -40 10 -13 3 -34 7 -48 10
-14 3 -33 7 -43 10 -10 3 -32 7 -50 10 -18 2 -43 6 -57 9 -80 17 -229 25 -260
13z m2321 -3706 c25 -11 52 -31 61 -44 16 -24 15 -27 -10 -64 -41 -62 -111
-131 -166 -166 -28 -18 -53 -35 -56 -38 -12 -12 -90 -60 -100 -60 -5 0 -10 -3
-10 -8 0 -4 -15 -13 -32 -21 -18 -8 -35 -17 -38 -21 -6 -8 -184 -94 -285 -138
-136 -59 -227 -91 -327 -118 -5 -1 -10 -3 -13 -4 -3 -1 -9 -4 -15 -5 -5 -1
-13 -4 -17 -5 -5 -2 -12 -4 -18 -5 -5 -1 -23 -7 -40 -14 -40 -16 -131 -40
-176 -46 -20 -2 -48 -9 -63 -15 -15 -5 -30 -9 -34 -9 -4 1 -9 0 -12 -1 -7 -2
-29 -7 -70 -15 -19 -3 -36 -8 -38 -10 -2 -2 -15 6 -28 18 -44 42 -99 73 -144
83 -14 3 -36 8 -50 11 -14 3 -70 5 -125 5 -120 1 -189 -7 -305 -33 -82 -19
-114 -27 -120 -30 -3 -1 -9 -3 -15 -4 -5 -1 -17 -5 -25 -8 -8 -3 -35 -12 -60
-18 -54 -15 -52 -14 -70 -22 -8 -3 -40 -15 -70 -25 l-55 -19 2 73 c1 40 -5 97
-13 126 -9 29 -16 59 -16 66 -1 6 -4 12 -7 12 -3 0 -12 13 -19 28 -16 38 -117
149 -142 157 -18 6 -30 27 -12 23 4 -1 20 2 36 7 16 4 36 9 45 10 9 1 23 5 32
9 9 4 29 8 45 10 16 2 29 5 29 6 0 2 14 5 50 13 11 2 39 9 63 16 24 7 55 14
70 16 33 5 67 13 67 15 0 1 7 3 15 5 8 2 29 6 45 10 17 3 39 8 50 10 55 11 81
16 95 20 8 2 29 7 45 10 17 2 41 7 55 10 14 4 34 7 45 9 11 2 30 6 42 10 12 4
37 9 55 11 18 2 44 6 58 10 14 3 39 8 55 10 17 3 41 7 55 9 25 5 57 11 120 21
19 3 51 7 70 9 19 3 51 7 70 11 19 4 46 8 60 10 22 3 64 9 140 21 14 2 52 6
85 10 33 3 74 8 90 10 41 6 98 12 170 19 33 3 76 7 95 10 19 3 71 7 115 10 44
3 103 8 130 10 28 2 111 7 185 10 74 3 136 8 138 10 12 12 172 -6 213 -23z
m-2095 -2535 c17 -6 21 -14 19 -45 -4 -47 -28 -134 -62 -222 -4 -8 -7 -17 -8
-20 -7 -30 -30 -88 -38 -97 -5 -7 -6 -13 -2 -13 4 0 0 -11 -9 -25 -9 -14 -14
-25 -11 -25 3 0 0 -10 -7 -22 -6 -13 -13 -29 -14 -36 -1 -7 -25 -60 -53 -118
-28 -58 -51 -110 -51 -115 0 -5 -4 -9 -10 -9 -5 0 -10 -8 -10 -18 0 -9 -11
-34 -25 -54 -14 -20 -25 -40 -25 -43 0 -8 -138 -235 -159 -262 l-17 -21 -73
44 c-40 24 -77 44 -82 44 -5 0 -9 5 -9 10 0 6 -4 10 -9 10 -12 0 -145 82 -149
92 -2 5 -10 8 -18 8 -8 0 -14 5 -14 10 0 6 -6 10 -13 10 -7 0 -22 8 -33 18
-10 9 -31 23 -46 31 -16 8 -28 18 -28 23 0 4 -6 8 -13 8 -7 0 -22 8 -33 18
-10 9 -31 23 -46 31 -16 8 -28 18 -28 23 0 4 -6 8 -13 8 -7 0 -22 8 -33 18
-10 9 -36 28 -56 42 -40 27 -47 39 -23 41 23 2 28 4 53 17 12 7 22 10 22 7 0
-3 11 2 25 11 14 9 25 13 25 9 0 -3 17 4 38 17 20 12 39 22 42 21 3 0 22 8 43
18 20 11 37 17 37 15 0 -6 222 109 271 140 22 13 39 21 39 17 0 -5 4 -3 8 3 4
6 27 21 52 35 25 13 54 32 64 42 11 9 26 17 33 17 7 0 13 5 13 10 0 6 5 10 10
10 6 0 28 12 49 28 21 15 49 34 61 42 12 8 28 20 34 25 6 6 46 37 89 70 43 33
94 72 113 87 35 26 42 28 80 15z m-1591 -1277 c121 -59 274 -141 340 -180 165
-98 405 -259 405 -271 0 -16 -200 -229 -296 -313 -395 -351 -787 -528 -1250
-567 -142 -11 -268 -6 -444 18 -169 23 -164 17 -82 104 254 272 776 919 982
1219 56 81 85 110 105 104 11 -3 119 -54 240 -114z"/>
</g>
</svg>
